# xmcd CD database file
#
# Track frame offsets:
#	150
#	15903
#	32125
#	47520
#	72423
#	88354
#	91865
#	107967
#	116918
#	138666
#	168011
#	182612
#	203744
#
# Disc length: 2877 seconds
#
# Revision: 0
# Processed by: cddbd v1.5.2PL0 Copyright (c) Steve Scherf et al.
# Submitted via: CDex 1.51
#
DISCID=ad0b3b0d
DTITLE=Bruce Mathiske and George Golla - ....Still Got My Guitar
DYEAR=2007
DGENRE=Jazz
TTITLE0=Laguna
TTITLE1=I'll be your baby tonight
TTITLE2=Still got my guitar
TTITLE3=The days of wine and roses
TTITLE4=Choro
TTITLE5=In Transition I
TTITLE6=In Transition II
TTITLE7=In Transition III
TTITLE8=Come rain or come shine
TTITLE9=Autumn Leaves
TTITLE10=As the breeze
TTITLE11=Stompin' at the Savoy
TTITLE12=Homecoming
EXTD=YEAR: 2007
EXTT0=
EXTT1=
EXTT2=
EXTT3=
EXTT4=
EXTT5=
EXTT6=
EXTT7=
EXTT8=
EXTT9=
EXTT10=
EXTT11=
EXTT12=
PLAYORDER=
